<svg width="849" height="211" viewBox="0 0 849 211" fill="none" xmlns="http://www.w3.org/2000/svg">
<path d="M161.11 47.8918L144.225 168.499H101.841L67.5537 100.614H67.2091L57.5605 168.499H20L36.885 47.8918H79.2698L113.729 115.776H114.074L123.55 47.8918H161.11Z" fill="#1D1D1F"/>
<path d="M219.664 170.567C207.603 170.567 197.438 168.729 189.168 165.053C181.012 161.377 175.039 156.094 171.249 149.202C167.573 142.31 166.367 134.155 167.631 124.736L168.32 119.222C169.698 109.689 173.202 101.533 178.83 94.7564C184.573 87.9794 192.039 82.7531 201.228 79.0774C210.532 75.2869 221.215 73.3916 233.276 73.3916C245.336 73.3916 255.444 75.2295 263.6 78.9051C271.87 82.5808 277.843 87.8645 281.518 94.7564C285.309 101.533 286.515 109.689 285.137 119.222L284.447 124.736C283.069 134.27 279.508 142.482 273.765 149.374C268.137 156.151 260.728 161.377 251.539 165.053C242.35 168.729 231.725 170.567 219.664 170.567ZM223.455 143.688C229.772 143.688 235.056 141.908 239.306 138.347C243.671 134.786 246.255 130.02 247.059 124.047L247.576 119.912C248.38 113.939 247.117 109.172 243.786 105.611C240.569 102.05 235.803 100.27 229.485 100.27C225.35 100.27 221.559 101.131 218.114 102.854C214.782 104.462 212.026 106.702 209.843 109.574C207.661 112.445 206.283 115.891 205.708 119.912L205.364 124.047C204.56 130.02 205.766 134.786 208.982 138.347C212.313 141.908 217.137 143.688 223.455 143.688Z" fill="#1D1D1F"/>
<path d="M350.232 170.567C338.171 170.567 328.006 168.729 319.736 165.053C311.58 161.377 305.608 156.094 301.817 149.202C298.141 142.31 296.935 134.155 298.199 124.736L298.888 119.222C300.266 109.689 303.77 101.533 309.398 94.7564C315.141 87.9794 322.607 82.7531 331.797 79.0774C341.101 75.2869 351.783 73.3916 363.844 73.3916C375.904 73.3916 386.012 75.2295 394.168 78.9051C402.438 82.5808 408.411 87.8645 412.087 94.7564C415.877 101.533 417.083 109.689 415.705 119.222L415.016 124.736C413.637 134.27 410.076 142.482 404.333 149.374C398.705 156.151 391.296 161.377 382.107 165.053C372.918 168.729 362.293 170.567 350.232 170.567ZM354.023 143.688C360.34 143.688 365.624 141.908 369.874 138.347C374.239 134.786 376.823 130.02 377.627 124.047L378.144 119.912C378.948 113.939 377.685 109.172 374.354 105.611C371.137 102.05 366.371 100.27 360.053 100.27C355.918 100.27 352.128 101.131 348.682 102.854C345.351 104.462 342.594 106.702 340.411 109.574C338.229 112.445 336.851 115.891 336.276 119.912L335.932 124.047C335.128 130.02 336.334 134.786 339.55 138.347C342.881 141.908 347.705 143.688 354.023 143.688Z" fill="#1D1D1F"/>
<path d="M434.108 139.898L501.304 75.4592H546.273L464.777 154.371L434.108 139.898ZM443.757 41H481.317L463.398 168.499H425.838L443.757 41ZM475.287 131.628L505.956 111.124L533.695 168.499H494.756L475.287 131.628Z" fill="#1D1D1F"/>
<path d="M561.345 47.8918H610.449L625.611 110.78H626.128L659.037 47.8918H707.969L691.084 168.499H653.695L663.861 95.4455H663.344L629.746 160.401H608.209L592.703 95.4455H592.358L582.02 168.499H544.46L561.345 47.8918Z" fill="#1D1D1F"/>
<path d="M761.85 170.567C750.593 170.567 741.175 168.786 733.594 165.225C726.127 161.55 720.729 156.266 717.398 149.374C714.067 142.482 713.09 134.27 714.469 124.736L715.158 119.222C716.536 109.689 719.982 101.533 725.496 94.7564C731.009 87.8645 738.303 82.5808 747.377 78.9051C756.452 75.2295 766.847 73.3916 778.563 73.3916C796.711 73.3916 809.978 77.8713 818.363 86.8307C826.863 95.7901 829.907 108.712 827.495 125.597L826.978 128.871H744.621L746.516 115.776H799.583L793.208 120.428L793.897 116.121C794.701 110.148 793.495 105.439 790.279 101.993C787.178 98.432 782.583 96.6516 776.495 96.6516C770.178 96.6516 764.894 98.432 760.644 101.993C756.509 105.439 754.039 110.148 753.235 116.121L751.34 129.043C750.536 135.476 751.57 140.357 754.441 143.688C757.428 147.019 761.85 148.685 767.708 148.685C773.107 148.685 777.586 147.594 781.147 145.411C784.708 143.114 787.12 140.3 788.384 136.969L824.049 139.553C819.454 149.432 811.759 157.07 800.961 162.469C790.164 167.867 777.127 170.567 761.85 170.567Z" fill="#1D1D1F"/>
</svg>
