<svg width="512" height="512" viewBox="0 0 512 512" fill="none" xmlns="http://www.w3.org/2000/svg">
<path d="M148.323 143.339C162.482 119.961 187.912 105.773 215.242 106.003L385.129 107.428C444.355 107.925 481.143 171.997 451.714 223.396L369.348 367.257C355.545 391.364 329.892 406.237 302.113 406.237H126.596C66.2308 406.237 29.0552 340.258 60.3278 288.625L148.323 143.339Z" fill="#007AFF"/>
<path d="M255.952 255.949L215.111 183.921C214.52 182.877 213.017 182.873 212.42 183.913L134.999 318.708C131.439 324.906 135.913 332.635 143.061 332.635H212.865C213.425 332.635 213.942 332.333 214.216 331.844L255.956 257.472C256.221 256.999 256.22 256.421 255.952 255.949Z" fill="#BED8FF"/>
<path d="M257.589 258.245L298.43 330.273C299.022 331.317 300.524 331.321 301.122 330.281L378.543 195.486C382.103 189.288 377.628 181.559 370.481 181.559L300.677 181.559C300.117 181.559 299.6 181.861 299.326 182.35L257.586 256.722C257.321 257.195 257.322 257.773 257.589 258.245Z" fill="#BED8FF"/>
</svg>
