<svg width="512" height="512" viewBox="0 0 512 512" fill="none" xmlns="http://www.w3.org/2000/svg">
<g clip-path="url(#clip0_3776_39)">
<path d="M122.403 116.071C139.986 87.0415 171.563 69.4237 205.501 69.7085L416.462 71.4789C490.007 72.0961 535.689 151.658 499.145 215.484L396.865 394.126C379.725 424.062 347.87 442.531 313.374 442.531H95.4228C20.4631 442.531 -25.7005 360.6 13.1329 296.483L122.403 116.071Z" fill="#007AFF"/>
<path d="M256.054 255.908L205.339 166.465C204.604 165.169 202.738 165.163 201.996 166.455L105.858 333.84C101.437 341.536 106.993 351.134 115.869 351.134H202.549C203.245 351.134 203.886 350.759 204.227 350.152L256.058 257.798C256.388 257.211 256.386 256.494 256.054 255.908Z" fill="#BED8FF"/>
<path d="M258.087 258.758L308.802 348.201C309.537 349.497 311.402 349.502 312.144 348.211L408.283 180.826C412.703 173.13 407.148 163.532 398.272 163.532L311.591 163.532C310.896 163.532 310.254 163.907 309.914 164.514L258.082 256.867C257.753 257.455 257.754 258.172 258.087 258.758Z" fill="#BED8FF"/>
</g>
<defs>
<clipPath id="clip0_3776_39">
<rect width="512" height="512" fill="white"/>
</clipPath>
</defs>
</svg>
